<svg viewBox="0 0 120 108" xmlns="http://www.w3.org/2000/svg">
  <style>
    .i { fill: #000000; }
    @media (prefers-color-scheme: dark) {
      .i { fill: #ffffff; }
    }
  </style>
  <polygon class="i" transform="translate(37,67) rotate(-300) translate(-37,-67)" points="35 74.052 35 76 39 76 39 74.052 39 59.948 39 58 35 58 35 59.948"/>
  <polygon class="i" transform="translate(83,67) rotate(-60) translate(-83,-67)" points="81 74.052 81 76 85 76 85 74.052 85 59.948 85 58 81 58 81 59.948"/>
  <path class="i" d="M80 54C80 42.954 71.046 34 60 34C48.954 34 40 42.954 40 54C40 65.046 48.954 74 60 74C71.046 74 80 65.046 80 54ZM44.233 54C44.233 45.292 51.292 38.233 60 38.233C68.708 38.233 75.767 45.292 75.767 54C75.767 62.708 68.708 69.767 60 69.767C51.292 69.767 44.233 62.708 44.233 54Z"/>
  <circle class="i" cx="24" cy="75" r="3"/>
  <circle class="i" cx="60" cy="96" r="3"/>
  <circle class="i" cx="60" cy="12" r="3"/>
  <circle class="i" cx="96" cy="33" r="3"/>
  <circle class="i" cx="24" cy="33" r="3"/>
  <circle class="i" cx="96" cy="75" r="3"/>
  <circle class="i" cx="60" cy="54" r="3"/>
  <polygon class="i" points="2 52 0 52 0 56 2 56 40 56 42 56 42 52 40 52"/>
  <polygon class="i" points="80 52 78 52 78 56 80 56 118 56 120 56 120 52 118 52"/>
  <polygon class="i" points="72.83 70.389 71.823 68.66 68.367 70.674 69.374 72.402 88.502 105.237 89.509 106.965 92.965 104.951 91.958 103.223"/>
  <polygon class="i" points="32.581 2.14 31.575 0.412 28.118 2.425 29.125 4.154 48.253 36.988 49.26 38.716 52.716 36.703 51.71 34.975"/>
  <polygon class="i" points="90.71 4.154 91.716 2.425 88.26 0.412 87.253 2.14 68.125 34.975 67.118 36.703 70.575 38.716 71.581 36.988"/>
  <polygon class="i" points="50.827 72.597 51.833 70.869 48.377 68.855 47.37 70.583 28.242 103.418 27.235 105.146 30.692 107.16 31.698 105.432"/>
  <polygon class="i" points="58 87.017 58 89 62 89 62 87.017 62 72.983 62 71 58 71 58 72.983"/>
  <polygon class="i" points="58 35.052 58 37 62 37 62 35.052 62 20.948 62 19 58 19 58 20.948"/>
  <polygon class="i" transform="translate(37,41) rotate(-60) translate(-37,-41)" points="35 48.052 35 50 39 50 39 48.052 39 33.948 39 32 35 32 35 33.948"/>
  <polygon class="i" transform="translate(83,41) rotate(-300) translate(-83,-41)" points="81 48.052 81 50 85 50 85 48.052 85 33.948 85 32 81 32 81 33.948"/>
</svg>
